<svg width="544" height="585" viewBox="0 0 544 585" fill="none" xmlns="http://www.w3.org/2000/svg">
<g filter="url(#filter0_d_257_718)">
<path d="M520.294 333.072C518.619 357.31 513.868 380.592 506.702 402.77L321.035 339.775C322.73 334.767 323.755 329.452 324.002 323.937L520.294 333.072ZM290.142 268.865C285.164 266.623 279.809 265.069 274.2 264.325L286.623 60.0169C311.861 62.1709 335.928 68.1234 358.315 77.2521L290.142 268.865ZM254.634 377.582L217.186 573.451C197.454 570.338 178.632 564.402 161.127 555.982L239.766 372.209C244.385 374.646 249.377 376.473 254.634 377.582ZM209.746 312.418L28.976 281.435C31.1613 259.01 36.6111 237.54 44.9492 217.528L213.547 299.016C211.764 303.25 210.473 307.741 209.746 312.418ZM304.593 364.447L438.228 482.513C424.525 497.094 408.793 509.662 391.464 519.778L301.847 366.724C302.786 365.993 303.702 365.234 304.593 364.447ZM294.524 371.575L367.728 517.59C350.316 526.879 331.45 533.702 311.554 537.704L281.453 376.873C286.065 375.64 290.447 373.848 294.524 371.575ZM266.402 527.56C257.487 527.56 248.726 526.853 240.127 525.609L266.643 378.821C267.584 378.82 268.519 378.796 269.449 378.75L292.698 525.601C284.098 526.85 275.334 527.56 266.402 527.56ZM215.93 348.598L102.623 429.833C92.5587 415.6 84.4804 399.897 78.7704 383.062L215.204 347.207C215.44 347.675 215.682 348.138 215.93 348.598ZM320.664 301.809L448.21 256.021C453.754 271.995 457.054 288.929 457.808 306.476L323.681 314.678C323.167 310.214 322.141 305.904 320.664 301.809ZM230.433 366.056L178.524 473.718C160.26 463.222 143.657 450.155 129.17 434.943L220.689 355.997C223.517 359.733 226.792 363.112 230.433 366.056ZM6.52537 309.126C6.57935 305.454 6.84199 301.859 7.12838 298.184L209.102 323.532C209.303 328.839 210.223 333.964 211.77 338.812L13.4076 369.662C8.70972 350.243 6.21831 330.01 6.52537 309.126ZM82.8845 207.763C91.5628 191.611 102.528 176.898 115.385 164.009L219.394 288.426C219.359 288.475 219.325 288.524 219.291 288.574L82.8845 207.763ZM225.881 280.684L112.099 113.305C130.268 99.0189 150.57 87.4156 172.44 78.9802L236.677 272.187C232.742 274.585 229.119 277.442 225.881 280.684ZM182.107 14.5357C211.405 6.06568 242.414 1.83769 274.413 2.58437L264.155 263.871C257.131 264.16 250.428 265.71 244.27 268.302L182.107 14.5357ZM403.957 23.9874C433.84 38.3382 461.103 57.0333 484.978 79.3697L308.539 282.026C305.318 278.587 301.679 275.544 297.703 272.977L403.957 23.9874ZM313.807 288.54L477.277 116.745C495.581 136.805 510.874 159.552 522.54 184.33L316.025 291.988C315.326 290.811 314.586 289.661 313.807 288.54ZM317.239 348.508L536.237 438.195C525.27 463.247 510.725 486.163 493.26 506.473L310.835 358.011C313.27 355.076 315.419 351.894 317.239 348.508Z" stroke="white" stroke-width="5" />
</g>
<defs>
<filter id="filter0_d_257_718" x="0" y="0" width="543.543" height="584.283" filterUnits="userSpaceOnUse" color-interpolation-filters="sRGB">
<feFlood flood-opacity="0" result="BackgroundImageFix"/>
<feColorMatrix in="SourceAlpha" type="matrix" values="0 0 0 0 0 0 0 0 0 0 0 0 0 0 0 0 0 0 127 0" result="hardAlpha"/>
<feOffset dy="4"/>
<feGaussianBlur stdDeviation="2"/>
<feComposite in2="hardAlpha" operator="out"/>
<feColorMatrix type="matrix" values="0 0 0 0 0 0 0 0 0 0 0 0 0 0 0 0 0 0 0.25 0"/>
<feBlend mode="normal" in2="BackgroundImageFix" result="effect1_dropShadow_257_718"/>
<feBlend mode="normal" in="SourceGraphic" in2="effect1_dropShadow_257_718" result="shape"/>
</filter>
</defs>
</svg>
