<svg width="536" height="577" viewBox="0 0 536 577" fill="none" xmlns="http://www.w3.org/2000/svg">
<path d="M273.011 0.1546C239.013 -0.914662 206.096 3.59024 175.11 12.8094L238.558 271.821C245.811 268.298 253.955 266.321 262.56 266.321L273.011 0.1546Z" fill="white"/>
<path d="M357.467 75.8502C333.478 65.7972 307.541 59.3671 280.282 57.3212L267.56 266.545C274.712 267.19 281.468 269.203 287.566 272.321L357.467 75.8502Z" fill="white"/>
<path d="M484.442 79.1988C459.342 55.365 430.455 35.5625 398.679 20.612L290.56 273.972C295.866 277.116 300.598 281.127 304.56 285.809L484.442 79.1988Z" fill="white"/>
<path d="M521.815 185.442C509.542 158.77 493.124 134.388 473.306 113.088L306.565 288.321C308.225 290.531 309.722 292.871 311.039 295.321L521.815 185.442Z" fill="white"/>
<path d="M456.395 308.822C455.817 289.279 452.128 270.456 445.726 252.82L313.409 300.321C315.601 305.621 316.987 311.339 317.417 317.321L386.906 313.072L456.395 308.822Z" fill="white"/>
<path d="M504.291 405.949C512.213 382.096 517.376 356.949 518.953 330.693L317.56 321.321C317.56 328.377 316.232 335.123 313.811 341.321L504.291 405.949Z" fill="white"/>
<path d="M489.56 509.941C508.446 488.366 524.038 463.811 535.543 436.848L312.06 345.324C309.75 350.08 306.775 354.452 303.255 358.321L489.56 509.941Z" fill="white"/>
<path d="M386.561 523.182C405.705 512.311 422.971 498.508 437.804 482.336L300.56 361.083C298.683 362.878 296.678 364.542 294.56 366.059L386.561 523.182Z" fill="white"/>
<path d="M305.56 540.64C327.434 536.513 348.112 529.027 367.049 518.636L291.56 368.063C286.402 371.271 280.673 373.648 274.56 375.008L305.56 540.64Z" fill="white"/>
<path d="M233.209 527.696C242.73 529.194 252.466 530.06 262.402 530.06C272.338 530.06 282.057 529.194 291.56 527.696L267.56 376.097C265.914 376.245 264.246 376.321 262.56 376.321C261.891 376.321 261.224 376.309 260.56 376.285L233.209 527.696Z" fill="white"/>
<path d="M153.893 557.185C172.924 566.616 193.53 573.125 215.189 576.283L253.56 375.588C246.719 374.462 240.304 372.074 234.56 368.67L153.893 557.185Z" fill="white"/>
<path d="M121.56 434.755C137.239 451.612 155.453 465.948 175.615 477.21L229.56 365.325C224.738 361.703 220.531 357.307 217.123 352.321L121.56 434.755Z" fill="white"/>
<path d="M71.5605 381.321C77.6487 400.167 86.6493 417.652 98.0481 433.321L215.211 349.321C214.244 347.689 213.358 346.002 212.56 344.266L71.5605 381.321Z" fill="white"/>
<path d="M0.839868 295.377C0.48773 299.938 0.0937768 304.455 0.0256385 309.089C-0.296531 331.001 2.4295 352.195 7.52873 372.484L211.117 340.821C208.819 334.76 207.56 328.188 207.56 321.321L0.839868 295.377Z" fill="white"/>
<path d="M39.6721 214.134C30.3611 235.749 24.4055 259.085 22.2739 283.508L207.884 315.321C208.557 309.12 210.26 303.229 212.819 297.821L39.6721 214.134Z" fill="white"/>
<path d="M111.56 160.321C97.1235 174.387 84.9492 190.682 75.5605 208.699L216.06 291.935C216.846 290.694 217.681 289.487 218.56 288.316L111.56 160.321Z" fill="white"/>
<path d="M169.99 75.7183C146.212 84.5887 124.224 97.1466 104.726 112.791L221.56 284.66C225.598 280.147 230.37 276.305 235.689 273.321L169.99 75.7183Z" fill="white"/>
</svg>
