<svg width="536" height="577" viewBox="0 0 536 577" fill="none" xmlns="http://www.w3.org/2000/svg">
<path d="M169.99 75.7183C146.212 84.5887 124.224 97.1465 104.726 112.791L221.561 284.66C225.599 280.147 230.371 276.305 235.689 273.321L169.99 75.7183Z" fill="#286CA7"/>
<path d="M111.561 160.321C97.1236 174.387 84.9492 190.682 75.5605 208.699L216.061 291.935C216.846 290.694 217.681 289.487 218.561 288.316L111.561 160.321Z" fill="#5CBA47"/>
<path d="M39.6722 214.135C30.3612 235.749 24.4056 259.085 22.2739 283.508L207.884 315.321C208.557 309.12 210.26 303.229 212.82 297.821L39.6722 214.135Z" fill="#4695D1"/>
<path d="M0.839868 295.377C0.48773 299.938 0.0937768 304.454 0.0256385 309.089C-0.296531 331.001 2.4295 352.195 7.52873 372.484L211.117 340.821C208.819 334.76 207.56 328.188 207.56 321.321L0.839868 295.377Z" fill="#388346"/>
<path d="M71.5605 381.321C77.6488 400.167 86.6494 417.652 98.0482 433.321L215.211 349.321C214.244 347.689 213.358 346.002 212.561 344.266L71.5605 381.321Z" fill="#BD912D"/>
<path d="M121.561 434.756C137.239 451.613 155.453 465.948 175.616 477.21L229.561 365.325C224.738 361.703 220.531 357.307 217.123 352.321L121.561 434.756Z" fill="#F7911E"/>
<path d="M153.893 557.185C172.924 566.616 193.53 573.125 215.189 576.283L253.56 375.588C246.719 374.462 240.304 372.074 234.56 368.67L153.893 557.185Z" fill="#E41071"/>
<path d="M233.209 527.696C242.73 529.194 252.466 530.06 262.402 530.06C272.338 530.06 282.057 529.194 291.561 527.696L267.561 376.097C265.914 376.245 264.246 376.321 262.561 376.321C261.891 376.321 261.224 376.309 260.561 376.285L233.209 527.696Z" fill="#F15D27"/>
<path d="M305.56 540.64C327.434 536.513 348.112 529.027 367.049 518.636L291.561 368.063C286.402 371.271 280.673 373.648 274.561 375.008L305.56 540.64Z" fill="#9E1C47"/>
<path d="M386.561 523.182C405.705 512.311 422.971 498.508 437.804 482.336L300.561 361.083C298.683 362.878 296.678 364.542 294.561 366.059L386.561 523.182Z" fill="#F8BC16"/>
<path d="M489.56 509.941C508.446 488.366 524.038 463.811 535.543 436.848L312.06 345.324C309.75 350.079 306.775 354.452 303.255 358.321L489.56 509.941Z" fill="#4CC6E2"/>
<path d="M504.291 405.949C512.213 382.096 517.376 356.949 518.953 330.693L317.56 321.321C317.56 328.377 316.232 335.123 313.811 341.321L504.291 405.949Z" fill="#EF3B2C"/>
<path d="M456.395 308.822C455.817 289.278 452.128 270.456 445.726 252.82L313.409 300.321C315.601 305.621 316.987 311.339 317.417 317.321L456.395 308.822Z" fill="#C92034"/>
<path d="M521.815 185.442C509.542 158.77 493.124 134.388 473.306 113.088L306.564 288.321C308.225 290.531 309.722 292.871 311.039 295.321L521.815 185.442Z" fill="#46AB48"/>
<path d="M484.442 79.1989C459.342 55.3651 430.455 35.5626 398.68 20.6121L290.561 273.972C295.866 277.116 300.598 281.127 304.561 285.809L484.442 79.1989Z" fill="#DDB026"/>
<path d="M357.467 75.8503C333.478 65.7973 307.541 59.3672 280.282 57.3213L267.561 266.546C274.712 267.19 281.468 269.203 287.566 272.321L357.467 75.8503Z" fill="#EE1F3E"/>
<path d="M273.011 0.1546C239.013 -0.914662 206.096 3.59024 175.11 12.8094L238.558 271.821C245.811 268.298 253.955 266.321 262.56 266.321L273.011 0.1546Z" fill="#21466B"/>
<path d="M169.99 75.7183C146.212 84.5887 124.224 97.1465 104.727 112.791L221.561 284.66C225.599 280.147 230.371 276.305 235.689 273.321L169.99 75.7183Z" fill="url(#paint0_linear_113_2)"/>
<path d="M112 160C97.563 174.066 85.3887 190.361 76 208.378L216.5 291.614C217.286 290.373 218.12 289.166 219 287.995L112 160Z" fill="url(#paint1_linear_113_2)"/>
<path d="M39.6722 214.135C30.3612 235.749 24.4056 259.085 22.2739 283.508L207.884 315.321C208.557 309.12 210.26 303.229 212.82 297.821L39.6722 214.135Z" fill="url(#paint2_linear_113_2)"/>
<path d="M71.5605 381.321C77.6488 400.167 86.6494 417.652 98.0482 433.321L215.211 349.321C214.244 347.689 213.358 346.002 212.561 344.266L71.5605 381.321Z" fill="url(#paint3_linear_113_2)"/>
<path d="M121.561 434.756C137.239 451.613 155.453 465.948 175.616 477.21L229.561 365.325C224.738 361.703 220.531 357.307 217.123 352.321L121.561 434.756Z" fill="url(#paint4_linear_113_2)"/>
<path d="M153.893 557.185C172.924 566.616 193.53 573.125 215.189 576.283L253.56 375.588C246.719 374.462 240.304 372.074 234.56 368.67L153.893 557.185Z" fill="url(#paint5_linear_113_2)"/>
<path d="M233.209 527.696C242.73 529.194 252.466 530.06 262.402 530.06C272.338 530.06 282.057 529.194 291.561 527.696L267.561 376.097C265.914 376.245 264.246 376.321 262.561 376.321C261.891 376.321 261.224 376.309 260.561 376.285L233.209 527.696Z" fill="url(#paint6_linear_113_2)"/>
<path d="M305.56 540.64C327.434 536.513 348.112 529.027 367.049 518.636L291.561 368.063C286.402 371.271 280.673 373.648 274.561 375.008L305.56 540.64Z" fill="url(#paint7_linear_113_2)"/>
<path d="M386.561 523.182C405.705 512.311 422.971 498.508 437.804 482.336L300.561 361.083C298.683 362.878 296.678 364.542 294.561 366.059L386.561 523.182Z" fill="url(#paint8_linear_113_2)"/>
<path d="M489.56 509.941C508.446 488.366 524.038 463.811 535.543 436.848L312.06 345.324C309.75 350.079 306.775 354.452 303.255 358.321L489.56 509.941Z" fill="url(#paint9_linear_113_2)"/>
<path d="M504.291 405.949C512.213 382.096 517.376 356.949 518.953 330.693L317.56 321.321C317.56 328.377 316.232 335.123 313.811 341.321L504.291 405.949Z" fill="url(#paint10_linear_113_2)"/>
<path d="M456.395 308.822C455.817 289.278 452.128 270.456 445.726 252.82L313.409 300.321C315.601 305.621 316.987 311.339 317.417 317.321L456.395 308.822Z" fill="url(#paint11_linear_113_2)"/>
<path d="M521.815 185.442C509.542 158.77 493.124 134.388 473.306 113.088L306.564 288.321C308.225 290.531 309.722 292.871 311.039 295.321L521.815 185.442Z" fill="url(#paint12_linear_113_2)"/>
<path d="M484.442 79.1989C459.342 55.3651 430.455 35.5626 398.68 20.6121L290.561 273.972C295.866 277.116 300.598 281.127 304.561 285.809L484.442 79.1989Z" fill="url(#paint13_linear_113_2)"/>
<path d="M357.467 75.8503C333.478 65.7973 307.541 59.3672 280.282 57.3213L267.561 266.546C274.712 267.19 281.468 269.203 287.566 272.321L357.467 75.8503Z" fill="url(#paint14_linear_113_2)"/>
<path d="M273.011 0.1546C239.013 -0.914662 206.096 3.59024 175.11 12.8094L238.558 271.821C245.811 268.298 253.955 266.321 262.561 266.321L273.011 0.1546Z" fill="url(#paint15_linear_113_2)"/>
<path d="M0.839868 295C0.48773 299.561 0.0937768 304.077 0.0256385 308.712C-0.296531 330.623 2.4295 351.818 7.52873 372.107L211.117 340.444C208.819 334.383 207.56 327.81 207.56 320.944L0.839868 295Z" fill="url(#paint16_linear_113_2)"/>
<defs>
<linearGradient id="paint0_linear_113_2" x1="229.5" y1="277.5" x2="183.803" y2="82.6119" gradientUnits="userSpaceOnUse">
<stop stop-color="white" stop-opacity="0.5"/>
<stop offset="1" stop-opacity="0.1"/>
</linearGradient>
<linearGradient id="paint1_linear_113_2" x1="217.439" y1="289.679" x2="107.033" y2="168.805" gradientUnits="userSpaceOnUse">
<stop stop-color="white" stop-opacity="0.5"/>
<stop offset="1" stop-opacity="0.1"/>
</linearGradient>
<linearGradient id="paint2_linear_113_2" x1="210" y1="306" x2="31.089" y2="244.472" gradientUnits="userSpaceOnUse">
<stop stop-color="white" stop-opacity="0.5"/>
<stop offset="1" stop-opacity="0.1"/>
</linearGradient>
<linearGradient id="paint3_linear_113_2" x1="213.5" y1="347.5" x2="81.0649" y2="403.94" gradientUnits="userSpaceOnUse">
<stop stop-color="white" stop-opacity="0.5"/>
<stop offset="1" stop-opacity="0.1"/>
</linearGradient>
<linearGradient id="paint4_linear_113_2" x1="223" y1="361" x2="137.031" y2="447.043" gradientUnits="userSpaceOnUse">
<stop stop-color="white" stop-opacity="0.5"/>
<stop offset="1" stop-opacity="0.1"/>
</linearGradient>
<linearGradient id="paint5_linear_113_2" x1="244" y1="372.5" x2="135.677" y2="536.614" gradientUnits="userSpaceOnUse">
<stop stop-color="white" stop-opacity="0.5"/>
<stop offset="1" stop-opacity="0.1"/>
</linearGradient>
<linearGradient id="paint6_linear_113_2" x1="264" y1="377.5" x2="210.723" y2="509.267" gradientUnits="userSpaceOnUse">
<stop stop-color="white" stop-opacity="0.5"/>
<stop offset="1" stop-opacity="0.1"/>
</linearGradient>
<linearGradient id="paint7_linear_113_2" x1="283" y1="372" x2="295.587" y2="532.896" gradientUnits="userSpaceOnUse">
<stop stop-color="white" stop-opacity="0.5"/>
<stop offset="1" stop-opacity="0.1"/>
</linearGradient>
<linearGradient id="paint8_linear_113_2" x1="298" y1="364" x2="389.947" y2="518.516" gradientUnits="userSpaceOnUse">
<stop stop-color="white" stop-opacity="0.5"/>
<stop offset="1" stop-opacity="0.1"/>
</linearGradient>
<linearGradient id="paint9_linear_113_2" x1="311.5" y1="353.5" x2="504.847" y2="489.631" gradientUnits="userSpaceOnUse">
<stop stop-color="white" stop-opacity="0.5"/>
<stop offset="1" stop-opacity="0.1"/>
</linearGradient>
<linearGradient id="paint10_linear_113_2" x1="314" y1="334" x2="510.448" y2="375.134" gradientUnits="userSpaceOnUse">
<stop stop-color="white" stop-opacity="0.5"/>
<stop offset="1" stop-opacity="0.1"/>
</linearGradient>
<linearGradient id="paint11_linear_113_2" x1="317" y1="310.5" x2="453.521" y2="288.19" gradientUnits="userSpaceOnUse">
<stop stop-color="white" stop-opacity="0.5"/>
<stop offset="1" stop-opacity="0.1"/>
</linearGradient>
<linearGradient id="paint12_linear_113_2" x1="309" y1="292" x2="514.404" y2="172.282" gradientUnits="userSpaceOnUse">
<stop stop-color="white" stop-opacity="0.5"/>
<stop offset="1" stop-opacity="0.1"/>
</linearGradient>
<linearGradient id="paint13_linear_113_2" x1="298" y1="278" x2="482.211" y2="83.1863" gradientUnits="userSpaceOnUse">
<stop stop-color="white" stop-opacity="0.5"/>
<stop offset="1" stop-opacity="0.1"/>
</linearGradient>
<linearGradient id="paint14_linear_113_2" x1="277.5" y1="267" x2="378.666" y2="98.5286" gradientUnits="userSpaceOnUse">
<stop stop-color="white" stop-opacity="0.5"/>
<stop offset="1" stop-opacity="0.1"/>
</linearGradient>
<linearGradient id="paint15_linear_113_2" x1="250.5" y1="265.5" x2="321.051" y2="28.9444" gradientUnits="userSpaceOnUse">
<stop stop-color="white" stop-opacity="0.5"/>
<stop offset="1" stop-opacity="0.1"/>
</linearGradient>
<linearGradient id="paint16_linear_113_2" x1="207.5" y1="334" x2="2" y2="334" gradientUnits="userSpaceOnUse">
<stop stop-color="white" stop-opacity="0.25"/>
<stop offset="1" stop-opacity="0.1"/>
</linearGradient>
</defs>
</svg>
