<?xml version="1.0" encoding="UTF-8"?> <svg xmlns="http://www.w3.org/2000/svg" viewBox="0 0 143.28 42.65"><defs><style>.cls-1{fill:#141414;}</style></defs><g id="Capa_2" data-name="Capa 2"><g id="Capa_1-2" data-name="Capa 1"><path class="cls-1" d="M35.13,20.47a13.63,13.63,0,0,0-3.49-8.95,14.38,14.38,0,0,0-7.37-4.16c-.06,0-.14.08-.14.11s-.17.18-.13.21-.17-.1-.17-.1L23.68,8l0,.42-.16.18L23,8.68l-.69.39-.17.23.06.53.16.59-.15.34-.1.09-.16-.18-.18-.13,0-.37,0-.3-.18-.39-.18-.08-.21.13L21,9.35l-.23,0h-.67v.26l-.21-.18-.43-.06L19,9.27l-.15.08-.3.07-.26.17-.21.12-.1.4,0,.2-.29.37v0l0,.67.21.87.2,0,.25.27.5-.16.34.08.44-.7.41-.07.49.11-.29.47-.17.33-.32.67,1,.11.42.21.07.42-.32.89.15.29.28.38.39.08.31-.09.45,0,.3.52.05-.29.34-.24.15-.29.27-.1.39,0,.49-.29.07.15-.12.13-.05.27-.07.39.26,0,.06-.37.32-.14.42.41.35-.09.55.43.46-.11.52.32.32.38.74,1,.75.06.6.48.12,0,.06.79.23.3-.34.35-.09.24.41-.08.21.05.16.18.41.09.45.35-.06.4.29-.05.51.26.65.33.15.55s.34-.14.48.09-.12.8-.3,1-.63.76-.63.76-.21.17-.25.11a5.48,5.48,0,0,0-.37,1.44c0,.31-.44.7-.44.7l-.37.29-.07.47a.38.38,0,0,0-.32.11c-.11.13-.21-.15-.38-.23s-.4.4-.69.41-.69.46-.69.46-.19.55-.23.76-.53.33-.53.33l-.46.46-.31.38a1.8,1.8,0,0,1-1,.37c-.27,0-.38-.09-.42-.15l.16.54s0,.32-.55.67-1.06.1-1.75,1-.38,1-.52,1.24-.79.48-.78.71.44.67.44.67l.13.13h-.61l-.19,0-.38-.17-.28-.15,0-.61.1-.54a3.66,3.66,0,0,1,0-.39,1.3,1.3,0,0,1,0-.17l.24-.18.1-.26,0-.21.06-.33.16-.3-.21,0-.06-.23.24-.51L22,30.21l.2,0,0-.27.52-.95,0-.65.13-.2v-.32l.25-.56.21-.61.06-.64.24-.55,0-.74-.32-.44-.85-.67-.31-.35L22.15,23s.08-.14-.07-.44-.5-1.12-.5-1.12l-.11-.5L21,20.44V19.9l.43-.43,0-.25-.11.06-.15,0,0-.38.15-.24.19-.23,0-.2.3-.05c.05,0,0-.16,0-.16h.2l0-.21.22-.06.28-.21-.15-.24.14-.77-.12-.18-.17-.14.06-.09,0-.11-.2-.27-.42.14.06.22-.13.13-.14,0,0-.15h-.21l0-.1-.29-.06-.24,0,0-.16a5.24,5.24,0,0,1-.4-.48,1,1,0,0,1,0,.14l-.19-.05V15l-.09-.34-.39-.35.19-.22-.4,0L19,13.82l-.4-.3-.42-.47-.68.07-1-.6-.23-.15-.28-.17-.24-.11-.26-.54.19-.17.09-.46-.32-.5,0-.17L15.1,10l.17-.07-.2-.26,0-.26-.15,0-.13-.13V9l0-.14,0,0L14.52,9l.08.15v.32l.09.29,0,.52.12.19v.22l-.18.12-.16-.52L14.3,9.8l-.2-.31.12-.34a14.47,14.47,0,0,0-7,12.52,13.64,13.64,0,0,0,3,8.43A14.39,14.39,0,0,0,19.24,35l.66.08c.5,0,1,0,1.5,0A14.45,14.45,0,0,0,35.13,20.47M23.72,12.69l-.72-.1.17-.12,0-.06-.24-.06-.14-.29-.52-.17-.32-.12.06-.09-.14,0-.19,0-.17.12-.18.07-.23,0h.2l.13-.13.31,0h.45l.37.13.25.22.36.29.41.14,0,.16.35.08Zm1.68.74-.33-.07-.18-.1-.28.2-.09-.07-.07-.12-.35,0-.18,0-.08-.13.08,0,.44.1L24.3,13l0-.16-.1-.08.06,0,.34,0,.46.1,0,.11.21.05-.11,0,.12.13.21.1Zm.69.2-.3-.06-.06-.12h0l.46.06Z"></path><path class="cls-1" d="M34.58,16.18a15.44,15.44,0,0,1,.66,4.28,15.91,15.91,0,0,1-3.07,9.66,13.83,13.83,0,0,0,3.19-7.07,13.69,13.69,0,0,0-.78-6.87"></path><path class="cls-1" d="M7.15,21.67a15.86,15.86,0,0,1,3.19-9.8A13.66,13.66,0,0,0,7,19.06a13.82,13.82,0,0,0,.72,6.73,15.83,15.83,0,0,1-.61-4.12"></path><path class="cls-1" d="M23,7.69h0a.3.3,0,0,1-.25-.33l1-7.11A.3.3,0,0,1,24.06,0a.29.29,0,0,1,.24.33l-1,7.11a.29.29,0,0,1-.32.25"></path><path class="cls-1" d="M20.12,7.59h0a.29.29,0,0,1-.31-.27l-.2-2.87a.29.29,0,0,1,.58,0l.19,2.87a.28.28,0,0,1-.26.31"></path><path class="cls-1" d="M14.65,9.16h0A.3.3,0,0,1,14.26,9L12.91,6.5a.29.29,0,0,1,.51-.27l1.35,2.54a.3.3,0,0,1-.12.39"></path><path class="cls-1" d="M10.29,12.81h0a.28.28,0,0,1-.4,0L7.62,11.09a.3.3,0,0,1,0-.4.29.29,0,0,1,.41,0l2.26,1.77a.28.28,0,0,1,0,.4"></path><path class="cls-1" d="M7.8,17.93h0a.29.29,0,0,1-.35.21l-2.79-.7a.3.3,0,0,1-.21-.35.29.29,0,0,1,.35-.21l2.79.7a.28.28,0,0,1,.21.35"></path><path class="cls-1" d="M7.6,23.61h0a.29.29,0,0,1-.23.34l-2.83.49a.28.28,0,1,1-.1-.56l2.83-.5a.28.28,0,0,1,.33.23"></path><path class="cls-1" d="M9.74,28.89h0a.3.3,0,0,1-.08.4l-2.39,1.6a.28.28,0,0,1-.4-.08A.29.29,0,0,1,7,30.42l2.39-1.61a.29.29,0,0,1,.4.08"></path><path class="cls-1" d="M13.83,32.84h0a.29.29,0,0,1,.09.39l-1.53,2.44a.28.28,0,0,1-.48-.3l1.52-2.44a.29.29,0,0,1,.4-.09"></path><path class="cls-1" d="M19.17,34.78h0a.29.29,0,0,1,.25.33L19,38a.29.29,0,1,1-.57-.08l.4-2.84a.29.29,0,0,1,.32-.25"></path><path class="cls-1" d="M24.85,34.38h0a.29.29,0,0,1,.35.2l.8,2.77a.29.29,0,0,1-.2.35.3.3,0,0,1-.36-.2l-.79-2.76a.3.3,0,0,1,.2-.36"></path><path class="cls-1" d="M29.87,31.71h0a.3.3,0,0,1,.41,0L32.12,34a.28.28,0,0,1,0,.4.29.29,0,0,1-.41,0l-1.85-2.2a.3.3,0,0,1,0-.41"></path><path class="cls-1" d="M33.37,27.23h0a.3.3,0,0,1,.39-.13l2.58,1.26a.28.28,0,0,1-.25.51L33.5,27.61a.28.28,0,0,1-.13-.38"></path><path class="cls-1" d="M34.75,21.71h0a.29.29,0,0,1,.29-.28l2.88.1a.29.29,0,1,1,0,.58L35,22a.29.29,0,0,1-.27-.3"></path><path class="cls-1" d="M33.76,16.11h0a.29.29,0,0,1,.16-.38l2.66-1.08a.31.31,0,0,1,.38.16.29.29,0,0,1-.16.38l-2.67,1.07a.29.29,0,0,1-.37-.15"></path><path class="cls-1" d="M30.58,11.39h0a.29.29,0,0,1,0-.41l2-2.06a.28.28,0,0,1,.4,0,.29.29,0,0,1,0,.41l-2,2.06a.28.28,0,0,1-.4,0"></path><path class="cls-1" d="M25.75,8.38h0A.29.29,0,0,1,25.58,8l1-2.7a.3.3,0,0,1,.37-.18.28.28,0,0,1,.17.37l-1,2.7a.29.29,0,0,1-.37.18"></path><path class="cls-1" d="M17.31,8.24h0A.29.29,0,0,1,17,8L15,1.13a.28.28,0,0,1,.2-.35.27.27,0,0,1,.35.19l2,6.91a.3.3,0,0,1-.2.36"></path><path class="cls-1" d="M12.36,11h0a.28.28,0,0,1-.4,0L7.34,5.5a.28.28,0,0,1,0-.4.28.28,0,0,1,.4,0l4.62,5.51a.29.29,0,0,1,0,.4"></path><path class="cls-1" d="M9,15.62H9a.28.28,0,0,1-.38.13L2.14,12.6A.28.28,0,0,1,2,12.22a.3.3,0,0,1,.38-.14l6.46,3.15a.3.3,0,0,1,.13.39"></path><path class="cls-1" d="M7.75,21.18h0a.27.27,0,0,1-.29.27L.28,21.2A.28.28,0,0,1,0,20.91a.29.29,0,0,1,.3-.28l7.18.25a.28.28,0,0,1,.27.3"></path><path class="cls-1" d="M8.89,26.75h0a.29.29,0,0,1-.16.38L2.07,29.82a.3.3,0,0,1-.37-.16.29.29,0,0,1,.16-.38l6.66-2.69a.29.29,0,0,1,.37.16"></path><path class="cls-1" d="M12.2,31.38h0a.29.29,0,0,1,0,.41L7.22,37a.3.3,0,0,1-.41,0,.28.28,0,0,1,0-.4l5-5.17a.29.29,0,0,1,.41,0"></path><path class="cls-1" d="M17.11,34.27h0a.29.29,0,0,1,.17.37l-2.46,6.74a.29.29,0,1,1-.54-.19l2.46-6.75a.28.28,0,0,1,.37-.17"></path><path class="cls-1" d="M22.76,34.91h0a.29.29,0,0,1,.31.26l.5,7.17a.3.3,0,0,1-.27.31.28.28,0,0,1-.3-.27l-.5-7.17a.29.29,0,0,1,.26-.3"></path><path class="cls-1" d="M28.19,33.19h0a.3.3,0,0,1,.39.12L32,39.65a.29.29,0,0,1-.12.39.29.29,0,0,1-.39-.12l-3.37-6.34a.29.29,0,0,1,.12-.39"></path><path class="cls-1" d="M32.45,29.42h0a.28.28,0,0,1,.4-.05l5.66,4.42a.29.29,0,0,1-.35.45L32.5,29.82a.28.28,0,0,1,0-.4"></path><path class="cls-1" d="M34.8,24.23h0a.29.29,0,0,1,.35-.2l7,1.74a.28.28,0,1,1-.14.55l-7-1.74a.3.3,0,0,1-.21-.35"></path><path class="cls-1" d="M34.85,18.54h0a.28.28,0,0,1,.23-.33L42.16,17a.28.28,0,1,1,.1.56l-7.08,1.25a.3.3,0,0,1-.33-.24"></path><path class="cls-1" d="M32.57,13.33h0a.3.3,0,0,1,.08-.4l6-4a.29.29,0,1,1,.32.48l-6,4a.3.3,0,0,1-.4-.08"></path><path class="cls-1" d="M28.37,9.49h0a.3.3,0,0,1-.09-.4L32.09,3a.29.29,0,0,1,.49.3L28.77,9.39a.29.29,0,0,1-.4.1"></path><rect class="cls-1" x="91.28" y="8.85" width="3.1" height="25.05"></rect><path class="cls-1" d="M81.91,8.74C75.34,8.74,70,14.35,70,21.26s5.32,12.53,11.89,12.53,11.9-5.61,11.9-12.53S88.48,8.74,81.91,8.74m0,22.09a9.31,9.31,0,0,1-9.11-9.5,9.11,9.11,0,1,1,18.21,0,9.3,9.3,0,0,1-9.1,9.5"></path><polygon class="cls-1" points="57.49 30.75 54.97 30.75 54.39 30.75 54.39 8.8 51.29 8.8 51.29 30.75 51.29 33.85 54.97 33.85 69.79 33.85 69.79 30.75 57.49 30.75"></polygon><rect class="cls-1" x="140.18" y="8.85" width="3.1" height="25.05"></rect><path class="cls-1" d="M130.81,8.74c-6.57,0-11.9,5.61-11.9,12.52s5.33,12.53,11.9,12.53,11.89-5.61,11.89-12.53S137.38,8.74,130.81,8.74m0,22.09a9.31,9.31,0,0,1-9.11-9.5,9.12,9.12,0,1,1,18.22,0,9.31,9.31,0,0,1-9.11,9.5"></path><polygon class="cls-1" points="106.39 30.75 103.86 30.75 103.28 30.75 103.28 8.8 100.18 8.8 100.18 30.75 100.18 33.85 103.86 33.85 118.69 33.85 118.69 30.75 106.39 30.75"></polygon></g></g></svg> 